<svg width="23" height="22" viewBox="0 0 23 22" fill="none" xmlns="http://www.w3.org/2000/svg">
<path d="M8.5 11L10.5 13L15 8.5M17.4012 3.99851C17.6071 4.49653 18.0024 4.8924 18.5001 5.09907L20.2452 5.82198C20.7433 6.02828 21.139 6.42399 21.3453 6.92206C21.5516 7.42012 21.5516 7.97974 21.3453 8.47781L20.6229 10.2218C20.4165 10.7201 20.4162 11.2803 20.6236 11.7783L21.3447 13.5218C21.4469 13.7685 21.4996 14.0329 21.4996 14.2999C21.4997 14.567 21.4471 14.8314 21.3449 15.0781C21.2427 15.3249 21.0929 15.549 20.9041 15.7378C20.7152 15.9266 20.491 16.0764 20.2443 16.1785L18.5004 16.9009C18.0023 17.1068 17.6065 17.5021 17.3998 17.9998L16.6769 19.745C16.4706 20.2431 16.075 20.6388 15.5769 20.8451C15.0789 21.0514 14.5193 21.0514 14.0212 20.8451L12.2773 20.1227C11.7792 19.9169 11.2198 19.9173 10.7221 20.1239L8.97689 20.8458C8.47912 21.0516 7.92001 21.0514 7.42237 20.8453C6.92473 20.6391 6.52925 20.2439 6.32281 19.7464L5.59972 18.0006C5.3938 17.5026 4.99854 17.1067 4.50085 16.9L2.75566 16.1771C2.25783 15.9709 1.86226 15.5754 1.65588 15.0777C1.44951 14.5799 1.44923 14.0205 1.6551 13.5225L2.37746 11.7786C2.58325 11.2805 2.58283 10.7211 2.3763 10.2233L1.65497 8.47678C1.5527 8.2301 1.50004 7.96568 1.5 7.69863C1.49996 7.43159 1.55253 7.16715 1.65472 6.92043C1.75691 6.67372 1.90671 6.44955 2.09557 6.26075C2.28442 6.07195 2.50862 5.92222 2.75537 5.8201L4.4993 5.09772C4.99687 4.89197 5.39248 4.4972 5.5993 4.00006L6.32218 2.25481C6.52848 1.75674 6.92418 1.36103 7.42222 1.15473C7.92027 0.948424 8.47987 0.948424 8.97792 1.15473L10.7218 1.87712C11.2199 2.08291 11.7793 2.08249 12.2771 1.87595L14.023 1.15585C14.521 0.94966 15.0804 0.949702 15.5784 1.15597C16.0763 1.36223 16.472 1.75783 16.6783 2.25576L17.4014 4.00153L17.4012 3.99851Z" stroke="#952BFF" stroke-width="2" stroke-linecap="round" stroke-linejoin="round"/>
</svg>
