<svg width="21" height="20" viewBox="0 0 21 20" fill="none" xmlns="http://www.w3.org/2000/svg">
<path d="M6.5 1H6.3C4.61984 1 3.77976 1 3.13803 1.32698C2.57354 1.6146 2.1146 2.07354 1.82698 2.63803C1.5 3.27976 1.5 4.11984 1.5 5.8V6M6.5 19H6.3C4.61984 19 3.77976 19 3.13803 18.673C2.57354 18.3854 2.1146 17.9265 1.82698 17.362C1.5 16.7202 1.5 15.8802 1.5 14.2V14M19.5 6V5.8C19.5 4.11984 19.5 3.27976 19.173 2.63803C18.8854 2.07354 18.4265 1.6146 17.862 1.32698C17.2202 1 16.3802 1 14.7 1H14.5M19.5 14V14.2C19.5 15.8802 19.5 16.7202 19.173 17.362C18.8854 17.9265 18.4265 18.3854 17.862 18.673C17.2202 19 16.3802 19 14.7 19H14.5M1.5 10H1.51M6 10H6.01M15 10H15.01M10.5 10H10.51M19.5 10H19.51" stroke="#333333" stroke-width="2" stroke-linecap="round" stroke-linejoin="round"/>
</svg>
